<?xml version="1.0" encoding="utf-8"?>
<!-- Generator: Adobe Illustrator 22.1.0, SVG Export Plug-In . SVG Version: 6.00 Build 0)  -->
<svg version="1.1" xmlns="http://www.w3.org/2000/svg" xmlns:xlink="http://www.w3.org/1999/xlink" x="0px" y="0px"
	 viewBox="0 0 1200 1200" style="enable-background:new 0 0 1200 1200;" xml:space="preserve">
<style type="text/css">
	.st0{fill:#231815;}
	.st1{fill-rule:evenodd;clip-rule:evenodd;fill:#60C4EA;}
	.st2{fill:#51B88B;}
	.st3{fill:#040000;}
	.st4{fill:#82BA3A;}
	.st5{fill:#84BC8D;}
</style>
<g id="图层_1">
</g>
<g id="图层_2">
	<g>
		<g>
			<path class="st0" d="M348.5,563.8c-16.8-0.2-29.1-7.4-36.9-21.6c-0.9-1.1-1.6-2.5-2.2-4.5l-1-2.2l-1-2.2c-0.4-1.3-0.4-2.5,0-3.8
				c0.2-0.8,0.6-1.4,1.3-1.6c0.6-0.2,1.3-0.2,1.9,0c1.1,0.6,2.1,1.5,3.2,2.5c0.6,0.9,1.6,2,2.9,3.5l1.6,1.6l1.3,1.6
				c2.1,2.3,4.7,4.5,7.6,6.4c5.7,3.4,10.8,5.8,15.3,7.3c9.1,3,17.7,3.2,25.8,0.6c7.8-2.5,14.7-7.4,20.7-14.6c3.6-4.5,5.1-9.1,4.5-14
				v-0.6v-0.6c0-0.2-0.1-0.4-0.3-0.6c-3.2-10.8-9.5-17.8-19.1-21c-3.4-1.3-8.2-2.3-14.3-3.2c-1.3-0.2-2.8-0.4-4.5-0.6l-4.5-0.3
				c-3.6-0.4-6.6-0.8-8.9-1.3c-7.9-1.5-14.8-5.2-20.7-11.1c-7.2-7-9.1-15.2-5.7-24.5c3-8.5,8.1-15.4,15.3-20.7
				c4.7-3.4,10-5,15.9-4.8c9.8,0,18.1,3.1,25.1,9.2c1.3,1.1,2.7,2.4,4.1,4.1l1.9,1.9l2.2,1.9c0.6,0.9,1.1,1.6,1.3,2.2
				c0.2,0.6,0.2,1.3,0,1.9c-0.4,0.6-1.2,0.9-2.2,0.6c-0.9-0.4-1.5-0.8-1.9-1.3c-0.4-0.4-1.2-1.1-2.2-1.9l-1-1.3l-1-1l-1.6-1.3
				l-1.3-1.3c-1.1-0.8-2-1.6-2.9-2.2c-5.9-4.5-12.8-6-20.7-4.8c-2.8,0.4-5.1,1.6-7,3.5c-1.9,1.9-3.4,3.6-4.5,5.1
				c-2.5,4-4.6,8.8-6,14.3c-1.1,4.2-0.1,8.1,2.9,11.5c4,4.9,9,8.1,15,9.5c1.7,0.4,4.1,1,7.3,1.6l3.5,0.6c1.3,0.4,2.4,0.7,3.5,1
				c5.9,1.5,10.5,2.8,13.7,3.8c9.1,3.2,16.1,9.1,21,17.8c2.1,3.6,3.5,7.5,4.1,11.8c0.6,5.3-0.3,10.2-2.9,14.6c-1.7,3-3.6,5.6-5.7,8
				c-8.1,8.9-17.3,15-27.7,18.1C358.7,563.3,353.6,564,348.5,563.8z"/>
			<path class="st0" d="M486.6,494.1c0,0.4,0,1.1,0,1.9l-0.3,2.9v2.9c-0.2,2.1-0.4,4-0.6,5.7c-1.3,9.3-2.8,17.6-4.5,24.8
				c-1.5,6.4-3.4,12.1-5.7,17.2c-1.5,3.2-3,5.7-4.5,7.6c-1.9,2.5-4,3.9-6.4,4.1c-2.3,0-4.5-1.3-6.4-3.8c-1.5-1.7-2.9-3.9-4.1-6.7
				c-2.1-4.2-3.8-9.4-5.1-15.6v-0.6v-0.3c0-0.4,0-0.7,0-1c-0.2-0.4-0.5-0.7-1-1l-1,3.8l-1.3,4.1c-0.9,3.4-1.6,6.2-2.2,8.3
				c-0.8,2.8-1.9,5.7-3.2,8.9c-0.9,1.7-1.9,3.2-3.2,4.5c-1.1,1.3-2.2,1.9-3.5,1.9c-1.3,0.2-2.5-0.1-3.8-1c-1.3-0.8-2.5-2-3.8-3.5
				c-3.6-4-6.6-8.8-8.9-14.3c-3.6-9.1-6.3-18.7-8-28.6c-0.6-3.8-1.2-8.3-1.6-13.4c-0.2-2.1-0.2-4.3,0-6.7c0.2-1.5,0.6-3.1,1.3-4.8
				c0.6-1.7,1.8-2.4,3.5-2.2c1.5,0,2.4,1,2.9,2.9c0.2,0.6,0.4,1.4,0.6,2.2v1l0.3,1.3l1,5.4l1,5.1c0.8,4.5,1.6,8.1,2.2,10.8l0.6,3.5
				l0.6,3.5c0.4,2.8,0.8,5.1,1.3,7c1.3,5.1,2.5,9.7,3.8,13.7c0.6,2.3,1.9,5.6,3.8,9.9c1.1,2.1,2.2,3.4,3.5,3.8
				c1.3,0,2.3-0.8,3.2-2.5c1.3-1.7,2.2-3.4,2.9-5.1c3.4-7.8,5.7-15.8,7-23.9c0.2-2.3,0.3-4.9,0.3-7.6c0-3,0.3-5.8,1-8.6
				c0.2-0.2,0.4-0.5,0.6-1l0.3-0.6v-0.3c0.6,0,1.1,0.1,1.3,0.3v0.3v0.3v0.3c1.7,9.5,4.9,20.8,9.5,33.7c0.4,1.1,1,2.2,1.6,3.5
				l0.6,1.9l1,1.6l0.3,1c0.2,0.2,0.4,0.4,0.6,0.6c0.4,0.6,0.8,1.1,1.3,1.3c1.3-0.2,2.3-1.2,3.2-2.9c1.7-2.5,3-4.7,3.8-6.4
				c3.6-7.6,6.5-17.1,8.6-28.3c1.9-10.2,3-17.9,3.2-23.2c0-0.2,0.1-0.4,0.3-0.6v-0.3l0.3-0.3v-0.3
				C485.9,492.6,486.4,493.2,486.6,494.1z"/>
			<path class="st0" d="M551.9,511.9c-0.9,1.1-1.9,1.7-3.2,1.9l-1.6,0.3h-1.9c-1.3,0.2-2.3,0.3-3.2,0.3c-4.2,0.2-9.5,0.3-15.9,0.3
				l-15.6,0.3c-0.4,0-0.7,0-1,0l-0.6,0.3h-0.6l-0.3,0.6l-0.3,0.3c-0.2,0.6-0.4,1.1-0.6,1.3c-3,8.1-3.2,15.7-0.6,22.9
				c2.8,7.9,7.7,12.6,15,14.3c4.2,1.1,8.7,0.5,13.4-1.6c6.2-2.8,10.7-7.6,13.7-14.6l0.3-0.6l0.3-1c0.2-0.4,0.4-0.8,0.6-1.3
				c0.4-0.4,0.8-0.7,1.3-1c0.6-0.2,1.2-0.2,1.6,0c1.1,0.6,1.5,1.6,1.3,2.9c0,0.2-0.1,0.4-0.3,0.6c-3.4,9.8-8.8,16.8-16.2,21
				c-5.5,3.2-11.3,4.2-17.2,3.2c-5.9-0.8-11.1-3.6-15.6-8.3c-7.6-8.1-10.8-18.1-9.5-30.2c0.6-7,3-13.3,7-18.8
				c5.1-7.4,11.6-11.9,19.4-13.4c10.8-2.1,19.5,1.1,26.1,9.5C550,504.8,551.5,508.3,551.9,511.9z M513.7,507.1
				c0.4,0.4,0.7,0.6,1,0.6c12.1,0.4,22.7,0.9,31.8,1.3l0.6-0.3l0.3-0.3h0.3c-1.9-3-4.4-5.3-7.3-7c-2.8-1.7-5.7-2.7-8.9-2.9
				c-3.2-0.2-6.4,0.4-9.5,1.9C518.8,501.9,516,504.2,513.7,507.1z"/>
			<path class="st0" d="M619.4,511.9c-0.9,1.1-1.9,1.7-3.2,1.9l-1.6,0.3h-1.9c-1.3,0.2-2.3,0.3-3.2,0.3c-4.2,0.2-9.5,0.3-15.9,0.3
				l-15.6,0.3c-0.4,0-0.7,0-1,0l-0.6,0.3h-0.6l-0.3,0.6l-0.3,0.3c-0.2,0.6-0.4,1.1-0.6,1.3c-3,8.1-3.2,15.7-0.6,22.9
				c2.8,7.9,7.7,12.6,15,14.3c4.2,1.1,8.7,0.5,13.4-1.6c6.2-2.8,10.7-7.6,13.7-14.6l0.3-0.6l0.3-1c0.2-0.4,0.4-0.8,0.6-1.3
				c0.4-0.4,0.8-0.7,1.3-1c0.6-0.2,1.2-0.2,1.6,0c1.1,0.6,1.5,1.6,1.3,2.9c0,0.2-0.1,0.4-0.3,0.6c-3.4,9.8-8.8,16.8-16.2,21
				c-5.5,3.2-11.3,4.2-17.2,3.2c-5.9-0.8-11.1-3.6-15.6-8.3c-7.6-8.1-10.8-18.1-9.5-30.2c0.6-7,3-13.3,7-18.8
				c5.1-7.4,11.6-11.9,19.4-13.4c10.8-2.1,19.5,1.1,26.1,9.5C617.5,504.8,619,508.3,619.4,511.9z M581.2,507.1
				c0.4,0.4,0.7,0.6,1,0.6c12.1,0.4,22.7,0.9,31.8,1.3l0.6-0.3l0.3-0.3h0.3c-1.9-3-4.4-5.3-7.3-7c-2.8-1.7-5.7-2.7-8.9-2.9
				c-3.2-0.2-6.4,0.4-9.5,1.9C586.3,501.9,583.5,504.2,581.2,507.1z"/>
			<path class="st0" d="M640.1,503.3c-0.4,0-1,0-1.6,0l-1.3-0.3c-1.3,0-2.2,0-2.9,0c-1.9-0.2-3.3-0.5-4.1-1
				c-1.3-0.6-1.9-1.7-1.9-3.2c-0.2-1.3,0.2-2.4,1.3-3.5c1.7-1.5,3.9-2.4,6.7-2.9h1.3l1.3-0.3c0.8-0.2,1.7-0.5,2.5-1l0.3-4.1l0.6-3.8
				l0.3-1.6l0.3-1.3c0.2-1.1,0.4-2,0.6-2.9c0.4-2.3,1.5-3.5,3.2-3.5c1.5,0.2,2.5,1.5,3.2,3.8c0.2,0.9,0.3,1.9,0.3,3.2
				c0.2,1.3,0.3,2.9,0.3,4.8l0.3,2.2c0,1.1,0,1.9,0,2.5h1l0.6,0.3c0.6,0.2,1.2,0.3,1.6,0.3l8,0.6l8,0.6h1c0.4,0,0.7,0.1,1,0.3
				c0.6,0,1.3,0.2,1.9,0.6c0.2,0.4,0.3,1,0.3,1.6c0.2,0.6,0.1,1.1-0.3,1.3c-0.9,0.6-1.6,1-2.2,1c-2.8,0.6-6.5,1.3-11.1,1.9
				c-1.3,0.2-2.8,0.4-4.5,0.6l-2.2,0.3l-2.5,0.3v0.6v0.6c-0.2,0.6-0.3,1.1-0.3,1.3c0,2.3,0,5.6,0,9.9v5.1l0.3,4.8
				c0,7.6,0.1,14.2,0.3,19.7c0.4,3.8,1.1,6.9,1.9,9.2c1.5,3.6,3.9,5.4,7.3,5.4c4.5,0.2,8.6-1.3,12.4-4.5l1.3-1.3
				c0.4-0.4,0.8-0.7,1.3-1c1.1-0.8,2-1.5,2.9-1.9v0.3v0.6c0,0.4,0,0.7,0,1c-0.9,2.1-2.3,4.2-4.5,6.4c-5.1,4.9-11,7.1-17.8,6.7
				c-4.9-0.2-8.8-3.2-11.8-8.9c-2.3-4-3.8-9.2-4.5-15.6c-0.9-7.8-1-17.2-0.3-28V509c0.2-0.6,0.3-1.3,0.3-1.9
				C640.1,505.7,640.1,504.4,640.1,503.3z"/>
		</g>
	</g>
	<g>
		<g>
			<path class="st0" d="M764.6,498.5c-2.1,0-4.9,0-8.3,0l-4.1,0.3H748c-6.6,0.2-12.1-0.1-16.6-1l-0.3,0.6v0.6
				c-0.4,0.4-0.6,0.7-0.6,1l-5.1,19.1l-5.1,18.8c-0.4,1.7-1.1,3.9-1.9,6.7l-1,3.5l-1,3.5c-0.6,2.3-1.9,5.3-3.8,8.9
				c-0.4,0.6-0.9,1.2-1.3,1.6c-0.9,0.9-1.8,1.4-2.9,1.6c-1.1,0.2-2.1,0.1-3.2-0.3c-2.1-1.1-3.1-2.8-2.9-5.1c0.2-3.6,0.8-7,1.9-10.2
				l1.9-5.4l1.9-5.7c1.7-4.5,3.1-8.1,4.1-10.8l5.7-15.9l5.7-15.9c4.9-13.4,8.8-24,11.8-31.8c0.8-2.8,2-6.2,3.5-10.2l1.6-4.8l1.6-5.1
				l0.3-1l0.3-1.3c0.4-0.8,0.7-1.6,1-2.2c0.4-0.8,1.1-1.4,1.9-1.6c0.8,0,1.6,0.3,2.2,1s1.3,1.6,1.9,2.9
				c10.8,19.7,18.5,35.2,22.9,46.5c1.5,3.4,3.2,7.5,5.1,12.4l4.8,12.1l15,37.2l0.6,1.3l0.3,1c0.4,0.9,0.7,1.6,1,2.2
				c0.4,1.3,0.6,2.4,0.6,3.5c0.2,2.3-0.6,4-2.5,5.1c-1.1,0.4-2.1,0.6-3.2,0.6c-1.3-0.2-2.3-0.7-3.2-1.6c-0.9-1.1-1.7-2.4-2.5-4.1
				c-0.6-1.1-1.3-2.3-1.9-3.8l-1-1.9l-0.6-1.6c-6.8-14.6-12.7-29.2-17.8-43.6c-0.4-1.1-0.9-2.2-1.3-3.5l-0.3-1l-0.3-0.6
				C765.1,499.6,764.8,499,764.6,498.5z M744.8,448.9c-3.2,10.2-6.9,23.3-11.1,39.5c0,0.2,0,0.4,0,0.6v0.3v0.3v0.3
				c0.6,0,1.4-0.1,2.2-0.3l2.2-0.3c1.9-0.2,3.4-0.3,4.5-0.3c1.3-0.2,2.8-0.3,4.5-0.3l4.1-0.3c0.6-0.2,1.4-0.3,2.2-0.3h1.3h1
				c1.9-0.2,3.5-0.4,4.8-0.6c-1.7-4.7-4.1-11-7.3-19.1l-1.9-4.8l-1.9-4.5c-1.3-3.6-2.4-6.8-3.5-9.5L744.8,448.9z"/>
			<path class="st0" d="M860.4,526.6c0.2,3,0.4,5.9,0.5,8.9c0.1,3,0.2,5.8,0.2,8.6v7l-0.6,7c0,1.3-0.3,2.2-1,2.9
				c-0.6,1.1-1.4,1.4-2.2,1c-1.1-0.4-1.6-1.1-1.6-1.9c0.4-3,0.7-5.7,0.8-8.1c0.1-2.4,0.2-4.9,0.2-7.5v-13.7
				c-0.2-1.1-0.3-2.2-0.3-3.3c0-1.2-0.1-2.5-0.3-4l-1-7.6c0-1.1-0.3-2.3-1-3.8c-1.3-3.8-3-6.5-5.3-8.1s-4.6-2.4-7.2-2.4
				c-4.2,0-8.6,1.5-13.1,4.6c-4.5,3.1-8,6.3-10.5,9.7c-0.9,0.9-1.2,1.8-1,2.9v3.2c-0.2,6.2-0.4,12.3-0.6,18.5
				c-0.2,6.2-0.5,12.2-1,18.1c-0.2,0.6-0.3,1.3-0.3,1.9s-0.1,1.2-0.3,1.6c-3.2-0.4-5-0.9-5.6-1.4c-0.5-0.5-0.9-1-1.1-1.4l-0.6-9.9
				c-0.2-1.9-0.3-3.7-0.3-5.3c0-1.6,0-3.1,0-4.6c-0.2-4-0.3-8.4-0.3-13.1c0-4.7,0-9.8,0-15.3c0-0.8,0-1.7,0-2.5
				c0-0.8,0.1-1.8,0.3-2.9l0.6-5.4c0-0.6,0.2-1.8,0.6-3.5c1.1-1.1,1.8-1.8,2.2-2.1c0.4-0.3,0.8-0.4,1.3-0.2c1.9,0.4,3,1.3,3.2,2.5
				c0.2,0.4,0.3,0.9,0.3,1.3c0,0.4,0.1,1,0.3,1.6l0.3,0.6v1c4.2-1.9,7.7-3.8,10.5-5.7c2.8-1.9,5.9-2.9,9.5-2.9c5.1,0,9.2,1,12.3,3
				c3.1,2,5.5,4.7,7.2,8c1.7,3.3,2.9,7,3.5,11C859.7,518.8,860.2,522.7,860.4,526.6z"/>
			<path class="st0" d="M919.9,496c0.4-0.4,0.6-1.1,0.6-1.9c0-0.2,0-0.5,0-1v-0.3v-0.6l0.3-4.5l0.3-4.8c0.2-3.8,0.4-6.9,0.6-9.2
				c0-1.5,0.1-3.3,0.3-5.4l0.6-2.9l0.3-2.9c0.2-1.3,0.6-2.4,1.3-3.5c0.4-1.1,1.2-1.6,2.2-1.6c1.1,0,1.9,0.5,2.5,1.6
				c0.4,1.1,0.7,2.2,1,3.5l0.6,2.2l0.3,2.2c0.2,1.9,0.4,3.5,0.6,4.8l0.3,7l0.6,6.7c0.2,5.3,0.4,10,0.6,14c0.4,19.5,0.2,37-0.6,52.5
				v1v1c0,0.9-0.1,1.5-0.3,1.9c-0.2,1.7-0.4,3.1-0.6,4.1c-0.4,1.3-1.1,2.2-1.9,2.9c-0.9,0.9-1.8,1.2-2.9,1c-1.1,0-1.9-0.3-2.5-1
				c-0.9-0.6-1.5-1.6-1.9-2.9c-0.2-0.6-0.4-1.4-0.6-2.2v-1l-0.3-1.3c-0.2,0-0.5,0.1-1,0.3l-0.6,0.3c-0.6,0.4-1.2,0.6-1.6,0.6
				c-6.2,3-12.5,4.5-19.1,4.5c-7,0.2-13.4-1.8-19.1-6c-5.5-4.5-9.3-10.3-11.5-17.5c-1.5-5.1-1.9-10.2-1.3-15.3
				c0.6-5.1,2.2-9.9,4.8-14.3s5.7-8.2,9.5-11.1c4.2-3.2,8.9-5.2,14-6c7.4-1.5,14.3-0.4,20.7,3.2l1.6,1l1.6,1H919.9z M921.2,551.4v-1
				c0-0.4,0-0.8,0-1.3v-6c-0.2-2.3-0.3-4.2-0.3-5.7l-0.3-10.8c-0.2-3.8-0.3-7.3-0.3-10.5c0-2.1-0.6-4.1-1.9-6
				c-5.3-6.6-12-9.6-20.1-8.9c-4,0.2-7.8,1.4-11.1,3.5c-3.4,2.1-6.2,4.9-8.3,8.3c-2.3,3.4-3.8,7.1-4.5,11.1c-0.9,4.2-0.9,8.3,0,12.1
				c1.5,6.2,4.6,11.3,9.2,15.3c4.5,3.8,9.8,5.8,15.9,6c5.9,0.2,12.2-1,18.8-3.5c0.4-0.2,1-0.5,1.6-1l0.6-0.3l0.6-0.6V551.4z"/>
		</g>
	</g>
	<g>
		<g>
			<path class="st0" d="M258.9,727.2c0.3,0,0.7,0,1,0h1c0.7,0,1.3,0,2,0c15.6-0.3,37.6,0.8,66,3.5c2.6,0.3,5.8,0.8,9.4,1.5l4.5,1
				l4.5,1c1,0,2,0.3,3,1l1.5,0.5l1.5,0.5c0.3,0.3,0.7,0.8,1,1.5c0.3,0.3,0.3,0.8,0,1.5c-0.3,1-1,1.7-2,2c-1.7,0.3-3.6,0.5-6,0.5
				l-14.4,1.5l-13.9,1l-10.4,1l-10.4,1c-14.9,1.3-28.6,1.2-41.2-0.5c-2-0.3-4.6-0.8-7.9-1.5l-3.5-1l-4-1c-3-0.7-4.6-2.5-5-5.5
				c0-1,0-2,0-3l1-12.4l0.5-11.9c0.3-9.6,0.8-17.9,1.5-24.8c1-15.6,2-29.5,3-41.7c2-24.2,3.8-44,5.5-59.6c0.7-5,1.5-11.1,2.5-18.4
				l1.5-9.4l1.5-9.4c0-1.3,0.3-3,1-5c0.3-0.7,0.8-1.2,1.5-1.5c0.7-0.3,1.3-0.5,2-0.5c1.7,0.3,2.5,1.2,2.5,2.5l0.5,2.5l0.5,2.5
				c0,2,0.2,3.6,0.5,5c0.3,9.3,0.7,16.7,1,22.3c0.3,26.8,0.2,52.6-0.5,77.5l-1,27.8l-0.5,27.3c0,2.3-0.2,5.1-0.5,8.4l-0.5,8.9
				c0,0.7,0,1.2,0,1.5v1V727.2z"/>
			<path class="st0" d="M433.6,704.4c-0.3,0.7-0.7,1.5-1,2.5v1l-0.5,1c-0.3,1.7-0.7,2.8-1,3.5l-2,4.5l-2,4.5
				c-1.3,3.3-2.5,6.3-3.5,8.9c-2,4-4.6,7.4-7.9,10.4c-6,5-12.6,6.6-19.9,5c-10.6-2.3-18.5-8.6-23.8-18.9c-3-6.6-5-13.4-6-20.4
				c-1-7.6-1.3-13.4-1-17.4c0.3-6.3,0.8-13.4,1.5-21.4l1-10.4l0.5-10.9c0.3-1.7,0.8-3.8,1.5-6.5c0.3-1,0.8-2,1.5-3
				c1-1,2.3-1.5,4-1.5c1.3,0.3,2.3,1.3,3,3c0.3,2,0.7,4.1,1,6.5c0,8.6,0,17.7,0,27.3c0,2.3,0,5.3,0,8.9v4.5v4.5
				c0,8.3,0.8,15.7,2.5,22.3c1,3.6,2.3,7.3,4,10.9c3,6.3,7.9,10.8,14.9,13.4c4.6,1.7,9.3,0.7,13.9-3c2.6-2,5.1-5,7.4-8.9
				c3.6-6,7-13.7,9.9-23.3c0.7-1.7,0.7-3.6,0-6c-2.3-11.6-2.8-23.5-1.5-35.8c0.7-6,2-11.9,4-17.9c0.7-2,1.7-3.8,3-5.5
				c0.7-1,1.7-1.3,3-1c1.3,0,2.1,0.7,2.5,2c0.7,2,1,4,1,6c0.3,4.3,0.5,9.6,0.5,15.9c0,12.6,0.7,24.2,2,34.8c1,5,2.3,10.4,4,16.4
				c0.7,3.3,2,7,4,10.9c3,5.3,7.1,8.6,12.4,9.9l0.5,0.5h0.5c0.3,0,0.7,0,1,0c1,0.3,1.8,1,2.5,2c0.3,1,0.5,1.8,0.5,2.5
				c-0.3,1-0.8,1.8-1.5,2.5c-0.7,0.7-1.5,1-2.5,1c-4.3,0-8.8-1.5-13.4-4.5c-4.6-3.3-8.3-7.3-10.9-11.9c-1-1.7-2.2-3.8-3.5-6.5
				l-2-3.5l-1.5-3.5C436.1,709.5,435.3,707.7,433.6,704.4z"/>
			<path class="st0" d="M568.2,659.2c-0.3-0.3-0.7-0.7-1-1l-1-0.5l-0.5-0.5c-1-0.7-1.8-1.2-2.5-1.5l-2-1.5l-2.5-1
				c-1.7-1-3.2-1.8-4.5-2.5c-10.9-4.6-21.4-3.1-31.3,4.5c-11.9,9.6-18.4,22.5-19.4,38.7c-0.7,7,0,13.4,2,19.4
				c3.3,9.6,8.9,16.4,16.9,20.4c8.3,4,16.7,4.3,25.3,1c9.3-3.6,16.4-9.8,21.4-18.4l0.5-1l0.5-1c0.3-0.7,0.7-1.2,1-1.5
				c0.3-0.3,0.8-0.5,1.5-0.5c0.7,0,1.2,0,1.5,0c0,0.3,0.2,0.7,0.5,1c0.3,0.3,0.5,0.8,0.5,1.5c0.3,0.3,0.3,0.7,0,1v0.5l-0.5,0.5
				c-5.3,10.6-11.9,18.4-19.9,23.3c-7.9,5.3-16.6,7.6-25.8,7c-9.3-0.7-17.6-4-24.8-9.9c-15.2-12.9-22-30.1-20.4-51.6
				c0.7-12.6,4.8-23.7,12.4-33.3c6.6-8.6,14.7-14.4,24.3-17.4c9.6-2.6,19.2-2.1,28.8,1.5c7.6,3,13.6,7.9,17.9,14.9
				c1.3,1.7,2.1,3.3,2.5,5l-0.5,1v0.5l-0.5,0.5C568.7,658.5,568.5,658.9,568.2,659.2z"/>
			<path class="st0" d="M602,701.4v3.5l-2.5,32.3c-0.3,4-1.3,7.4-3,10.4l-1,1.5l-7.4-2c-1.3-3.3-2-7.1-2-11.4v-20.4l0.5-33.8
				c0-13.9,0.2-27.8,0.7-41.7c0.5-13.9,2.1-27.8,4.7-41.7c0.7-3.3,1.2-5.6,1.5-7c0-1,0.3-2.1,1-3.5c1.7-2.6,3.5-3.8,5.5-3.5
				c3,0.3,4.6,1.7,5,4c1,3,1.5,5.8,1.5,8.4c0.3,7.3,0.3,14.4,0,21.4c-0.3,9.6-0.7,18.4-1,26.3c-0.3,7.9-0.8,15.1-1.5,21.4v7.9l7-9.4
				c1.3-1.7,2.4-3.2,3.2-4.7c0.8-1.5,1.6-2.9,2.2-4.2c4.6-7,9.8-13.2,15.4-18.9c0.7-1,1.5-1.9,2.5-2.7c1-0.8,2-1.7,3-2.7
				c0.7-0.3,2-0.8,4-1.5c1.3,0,2.5,0.7,3.5,2c1.3,1,1.7,2.3,1,4c0,0.7-0.7,2.3-2,5c-2.7,3.6-5.7,7.9-9.2,12.9
				c-3.5,5-7.5,10.8-12.2,17.4c-0.7,1-1.4,2.1-2.2,3.2c-0.8,1.2-1.9,2.4-3.2,3.7l-2.5,4c-1.3,2-2,3.2-2,3.5l0.5,1.5
				c4.6,7.6,9.9,15.1,15.9,22.6s13.2,15.1,21.8,23.1c2,1.7,3.6,3.2,5,4.7c1.3,1.5,2.5,2.9,3.5,4.2c-0.7,2.7-1.2,4.1-1.5,4.5
				c-0.3,0.3-0.7,0.5-1,0.5h-3c-5-1.3-9.7-3.6-14.2-7c-4.5-3.3-8.7-7-12.7-10.9s-7.7-8.1-11.2-12.4c-3.5-4.3-6.7-8.1-9.7-11.4l-1-1
				C604,702.7,603,702.1,602,701.4z"/>
			<path class="st0" d="M714.7,730.2c0.3-0.7,0.7-1.7,1-3c0.3-0.7,0.7-1.5,1-2.5c0.7-2.3,1.2-4.1,1.5-5.5l5.5-15.4l5.5-15.4
				c4.3-12.2,7.9-22.7,10.9-31.3c1-2.6,2.3-5.6,4-8.9l1.5-4.5l2-4.5c1-2.3,2.3-4.3,4-6c1.7-2,3.3-2,5,0c1.3,1.3,1.8,3.5,1.5,6.5
				c-0.3,3.3-0.8,6.3-1.5,8.9c-3,9.9-5.3,17.2-7,21.8c-6.6,18.5-12.6,34.4-17.9,47.7c-5,12.9-11.1,28.3-18.4,46.2l-18.4,46.7
				l-0.5,1.5l-1,2c-0.3,1.3-0.8,2.3-1.5,3c-0.3,0.3-0.8,0.7-1.5,1c-0.7,0-1.2-0.2-1.5-0.5c-0.3-0.3-0.7-1-1-2c-0.3-1-0.3-1.8,0-2.5
				c0-1.3,0.2-2.7,0.5-4l1-2l0.5-2l7.9-24.3l8.4-24.3c0.7-2,1.3-4.3,2-7l1.5-4l1-3.5l-0.5-1.5l-1-2c-0.3-1-0.7-2-1-3l-17.4-34.8
				l-17.4-35.3c-1.3-3-2.8-6.1-4.5-9.4c-0.7-2-1.3-3.8-2-5.5c-0.3-1.7-0.3-3.3,0-5c0.3-1.7,0.8-3,1.5-4c1-1,2-1.5,3-1.5
				c1-0.3,2,0,3,1c1,1.3,1.8,2.8,2.5,4.5c2.3,4,4.5,8.4,6.5,13.4l14.9,34.3l14.9,34.3L714.7,730.2z"/>
		</g>
	</g>
	<path class="st1" d="M304,594.1c-6.7-0.2-12.4,5.1-12.6,11.8c-0.2,6.7,5.1,12.4,11.8,12.6c6.7,0.2,12.4-5.1,12.6-11.8
		C316,599.9,310.7,594.3,304,594.1z M300.9,605.3c-2.3-0.1-4.1-2-4-4.2c0.1-2.3,2-4.1,4.2-4c2.3,0.1,4.1,2,4,4.3
		C305,603.6,303.1,605.4,300.9,605.3z"/>
	<path class="st1" d="M960.4,581.9c-6.7-0.2-12.4,5.1-12.6,11.8c-0.2,6.7,5.1,12.4,11.8,12.6c6.7,0.2,12.4-5.1,12.6-11.8
		C972.5,587.7,967.2,582.1,960.4,581.9z M957.3,593.1c-2.3-0.1-4.1-2-4-4.2c0.1-2.3,2-4.1,4.2-4c2.3,0.1,4.1,2,4,4.3
		C961.5,591.4,959.6,593.2,957.3,593.1z"/>
	<path class="st1" d="M572.8,422.5c-4.1-0.1-7.6,3.1-7.7,7.2c-0.1,4.1,3.1,7.6,7.2,7.7c4.1,0.1,7.6-3.1,7.7-7.2
		C580.2,426.1,576.9,422.7,572.8,422.5z M570.9,429.4c-1.4,0-2.5-1.2-2.4-2.6c0-1.4,1.2-2.5,2.6-2.5c1.4,0,2.5,1.2,2.5,2.6
		C573.5,428.3,572.3,429.4,570.9,429.4z"/>
	<g>
		<g>
			<path class="st2" d="M850.9,670.6c-0.4-0.6-0.8-1.2-1.2-1.8c-5-6.7-14-15.3-22.9-24.7c-0.1,0.2-0.1,0.3-0.2,0.5
				c0.1-0.2,0.1-0.3,0.2-0.5c-0.8-0.8-1.5-1.6-2.3-2.5c-9.2,2.7-20.3,2-31.2,0.1c0.1,10.3,0.7,20.4,2.6,30.3c0.3,1.3,0.7,2.6,1,4
				C815.5,680.3,838.1,679.4,850.9,670.6z"/>
			<g>
				<path class="st3" d="M852,670c-6.6-9.9-16.1-18.1-24.3-26.7c-0.7-0.7-1.8-0.3-2.1,0.5c-0.1,0.2-0.1,0.4-0.2,0.5
					c-0.4,1.5,1.9,2.2,2.4,0.7c0.6-1.9-1.2-2.9-2.5-4.2c-0.3-0.3-0.8-0.4-1.2-0.3c-10,2.7-20.4,1.8-30.5,0.1
					c-0.8-0.1-1.6,0.3-1.6,1.2c0.2,11.5,0.6,23.4,3.6,34.6c0.1,0.4,0.5,0.8,0.9,0.9c17.6,3.8,39.3,4.7,55-5.6c1.3-0.9,0.1-3-1.2-2.1
					c-11.2,7.3-25.5,8.4-38.5,7.5c-3.7-0.3-7.9-0.4-11.5-1.5c-3.5-1.1-3.3-4-3.8-7.4c-1.3-8.7-1.7-17.5-1.9-26.3
					c-0.5,0.4-1,0.8-1.6,1.2c5.8,0.9,11.6,1.7,17.4,1.7c2.6,0,5.3-0.1,7.9-0.5c0.4-0.1,7.7-1.6,7.2,0.1c-0.4,1.5,1.9,2.2,2.4,0.7
					c0.1-0.2,0.1-0.4,0.2-0.5c-0.7,0.2-1.4,0.4-2.1,0.5c8,8.5,17.4,16.5,23.9,26.2C850.8,672.6,852.9,671.3,852,670z"/>
			</g>
		</g>
		<g>
			<path class="st4" d="M824.5,641.7c-13.8-14.9-26.8-31.6-24.2-46.5C797.7,610,810.7,626.8,824.5,641.7c0.4-0.1,0.7-0.2,1.1-0.3
				C825.2,641.5,824.8,641.6,824.5,641.7c0.8,0.8,1.5,1.7,2.3,2.5c3.9-13.7,7.8-25.6,10.3-38c-15.9-5.9-32.1-12.6-44.6-26.3
				c2.2,20.5,0.5,41.5,0.7,62C804.2,643.6,815.3,644.4,824.5,641.7z"/>
			<g>
				<path class="st3" d="M825.4,640.8c-10.8-11.7-26.4-27.9-23.9-45.3c0.2-1.6-2.2-2.2-2.4-0.7c-2.6,18.5,13,35.2,24.5,47.7
					c0.3,0.3,0.8,0.4,1.2,0.3c0.4-0.1,0.7-0.2,1.1-0.3c1.5-0.4,0.9-2.8-0.7-2.4c-0.4,0.1-0.7,0.2-1.1,0.3c-0.9,0.3-1.2,1.4-0.5,2.1
					c0.8,0.8,1.5,1.7,2.3,2.5c0.7,0.7,1.8,0.3,2.1-0.5c3.6-12.6,7.7-25.1,10.3-38c0.1-0.7-0.2-1.3-0.9-1.5c-16.3-6.1-32-13.1-44-26
					c-0.7-0.7-2.2-0.2-2.1,0.9c2.1,20.6,0.6,41.3,0.7,62c0,0.5,0.4,1.1,0.9,1.2c10.6,1.7,21.4,2.7,31.8-0.1c1.5-0.4,0.9-2.8-0.7-2.4
					c-7.1,2-14.5,2-21.8,1.3c-4.8-0.5-7.8,0.4-7.8-4.8c0-3.9,0.1-7.7,0.1-11.6c0.3-15.2,0.7-30.4-0.9-45.6c-0.7,0.3-1.4,0.6-2.1,0.9
					c12.3,13.2,28.5,20.4,45.1,26.6c-0.3-0.5-0.6-1-0.9-1.5c-2.7,12.9-6.7,25.4-10.3,38c0.7-0.2,1.4-0.4,2.1-0.5
					C826.9,642.4,826.1,641.6,825.4,640.8c-0.2,0.7-0.4,1.4-0.5,2.1c0.4-0.1,0.7-0.2,1.1-0.3c1.5-0.4,0.9-2.8-0.7-2.4
					c-1.6,0.4-7.3-7.7-8.4-9.1c-3.1-3.8-6.1-7.7-8.7-11.9c-4.4-7.1-7.9-15.2-6.7-23.7c0.2-1.6-2.2-2.2-2.4-0.7
					c-2.6,18.5,13,35.2,24.5,47.7C824.7,643.7,826.5,642,825.4,640.8z"/>
			</g>
		</g>
		<g>
			<path class="st5" d="M868.2,708.8c-3.6-13.5-9.2-26.6-17.3-38.2c-12.8,8.8-35.4,9.7-54.1,5.5c3.5,13,10.4,24.8,19.6,34.9
				C833.5,713.9,852.4,713.2,868.2,708.8z"/>
			<g>
				<path class="st3" d="M869.4,708.4c-3.8-13.7-9.3-26.7-17.4-38.5c-0.4-0.5-1.1-0.8-1.7-0.4c-15.1,9.9-36.1,9-53.1,5.4
					c-0.9-0.2-1.8,0.6-1.5,1.5c2.1,7.7,5.3,14.9,9.5,21.7c2.1,3.4,4.5,6.7,7.1,9.9c2.6,3.1,3.3,4.1,7.3,4.7
					c16.3,2.3,33.1,1.6,49-2.7c1.5-0.4,0.9-2.8-0.7-2.4c-14.2,3.9-29,4.7-43.6,3.2c-5.2-0.5-7.5-1.2-10.8-5.2
					c-2.4-3-4.6-6.1-6.6-9.4c-3.9-6.4-6.8-13.2-8.8-20.4c-0.5,0.5-1,1-1.5,1.5c17.6,3.8,39.3,4.7,55-5.6c-0.6-0.1-1.1-0.3-1.7-0.4
					c8,11.6,13.4,24.4,17.2,37.9C867.5,710.6,869.8,710,869.4,708.4z"/>
			</g>
		</g>
		<g>
			<path class="st5" d="M897.8,658.1c-6.4,17.7-16.1,34.6-29.3,47C881.7,692.7,891.4,675.8,897.8,658.1
				c-4.5-20.3-15.4-31.3-29.2-38.9c-3.2,18.7-7.1,37.3-15.5,54.1c8.4-16.8,12.3-35.4,15.5-54.1c-9.6-5.3-20.4-9-31.4-13.1
				c-2.5,12.5-6.4,24.3-10.3,38c9,9.5,17.9,18,22.9,24.7c0.4,0.6,0.8,1.2,1.2,1.8c0.3-0.2,0.7-0.4,1-0.7c-0.3,0.2-0.7,0.4-1,0.7
				c8.1,11.6,13.6,24.6,17.3,38.2c0.4-0.1,0.9-0.2,1.3-0.3c-0.4,0.1-0.9,0.2-1.3,0.3c1.4,5.3,2.6,10.8,3.5,16.2
				c1.1,5.5,0,12.1,2.2,15.4c-2.2-3.3-1.1-9.9-2.2-15.4c-0.9-5.4-2.1-10.8-3.5-16.2c-15.8,4.5-34.7,5.1-51.7,2.2
				c15.9,17.4,38.2,29.7,59.7,33.8l2.2-1.1c14.3-18.7,24.2-50.6,20.9-77C898.9,663.6,898.4,660.8,897.8,658.1z"/>
			<g>
				<path class="st3" d="M896.6,657.8c-6.3,17.3-15.6,33.6-29,46.5c-1.2,1.1,0.6,2.9,1.7,1.7c7.3-7.1,13.6-15.1,18.7-23.9
					c2.7-4.5,5-9.3,7.1-14.1c1.6-3.6,4.4-7.9,3.4-11.8c-4-16.8-14.5-29.6-29.4-38c-0.6-0.4-1.7-0.1-1.8,0.7
					c-3.2,18.5-7.1,36.8-15.4,53.8c0.7,0.4,1.4,0.8,2.1,1.2c8.4-17.1,12.4-35.7,15.6-54.4c0.1-0.5-0.1-1.1-0.6-1.4
					c-10.1-5.5-21-9.2-31.7-13.2c-0.6-0.2-1.4,0.3-1.5,0.9c-1.4,6.8-3.2,13.5-5.1,20.2c-0.9,3.2-1.9,6.4-2.8,9.6
					c-0.6,2-2.8,6.6-2.4,8.7c0.4,1.9,3.1,3.6,4.4,4.9c2.6,2.7,5.2,5.3,7.7,7.9c4.3,4.5,8.7,8.9,12.2,14.1c0.4,0.5,1.1,0.8,1.7,0.4
					c0.3-0.2,0.7-0.4,1-0.7c1.3-0.9,0.1-3-1.2-2.1c-0.3,0.2-0.7,0.4-1,0.7c-0.5,0.3-0.8,1.1-0.4,1.7c8,11.6,13.4,24.4,17.2,37.9
					c0.2,0.7,0.9,1,1.5,0.9c0.4-0.1,0.9-0.2,1.3-0.3c1.5-0.4,0.9-2.8-0.7-2.4c-0.4,0.1-0.9,0.2-1.3,0.3c-0.7,0.2-1,0.9-0.9,1.5
					c1.7,6.4,3.4,13.1,3.9,19.7c0.3,4.1-0.1,8.4,1.9,12.2c0.7,1.4,2.9,0.2,2.1-1.2c-2.2-4.1-1.3-9.8-1.9-14.3
					c-0.8-5.7-2.2-11.4-3.6-16.9c-0.2-0.6-0.9-1-1.5-0.9c-16.6,4.5-34.1,4.9-51.1,2.2c-1.2-0.2-2.1,1.1-1.2,2.1
					c10.5,11.4,23.3,20.6,37.4,26.8c6.4,2.8,13,5.1,19.8,6.6c5.1,1.1,6.5-0.6,9.4-4.9c15.8-23.5,22.7-54.8,16.8-82.6
					c-0.3-1.6-2.7-0.9-2.4,0.7c5.6,26.1-0.7,55.1-14.6,77.7c-1.2,1.9-2.6,5.3-4.6,6.6c-2,1.3-4.7,0-6.9-0.5c-6.6-1.7-13-4.1-19.1-7
					c-12.8-6.1-24.3-14.7-34-25.1c-0.4,0.7-0.8,1.4-1.2,2.1c17.4,2.8,35.4,2.5,52.4-2.2c-0.5-0.3-1-0.6-1.5-0.9
					c1.7,6.4,3.4,13.1,3.9,19.7c0.3,4.1-0.1,8.4,1.9,12.2c0.7,1.4,2.9,0.2,2.1-1.2c-2.2-4.1-1.3-9.8-1.9-14.3
					c-0.8-5.7-2.2-11.4-3.6-16.9c-0.3,0.5-0.6,1-0.9,1.5c0.4-0.1,0.9-0.2,1.3-0.3c1.5-0.4,0.9-2.8-0.7-2.4c-0.4,0.1-0.9,0.2-1.3,0.3
					c0.5,0.3,1,0.6,1.5,0.9c-3.8-13.7-9.3-26.7-17.4-38.5c-0.1,0.6-0.3,1.1-0.4,1.7c0.3-0.2,0.7-0.4,1-0.7c1.3-0.9,0.1-3-1.2-2.1
					c-0.3,0.2-0.7,0.4-1,0.7c0.6,0.1,1.1,0.3,1.7,0.4c-2.6-3.9-5.8-7.4-9-10.9c-2.2-2.3-4.4-4.6-6.7-7c-2.1-2.2-5.9-4.8-7.3-7.5
					c-1.3-2.6,0.9-6.8,1.6-9.3c1-3.5,2.1-6.9,3-10.4c1.7-6.1,3.3-12.3,4.6-18.5c-0.5,0.3-1,0.6-1.5,0.9c7.3,2.7,14.6,5.2,21.7,8.4
					c2.1,0.9,7.1,2.3,8.2,4.4c1.1,2.1-1,8.2-1.5,10.5c-2.9,14.5-6.7,28.8-13.3,42.1c-0.7,1.4,1.4,2.7,2.1,1.2
					c8.4-17.1,12.4-35.7,15.6-54.4c-0.6,0.2-1.2,0.5-1.8,0.7c13.1,7.4,25.7,20.2,28,35.8c0.7,4.8-2.7,10.3-4.7,14.5
					c-1.9,4-4,7.9-6.3,11.7c-4.9,8.1-10.7,15.5-17.5,22c-1.2,1.1,0.6,2.9,1.7,1.7c13.7-13.2,23.1-29.8,29.6-47.6
					C899.5,657,897.1,656.3,896.6,657.8z"/>
			</g>
		</g>
	</g>
</g>
</svg>
